<svg xmlns="http://www.w3.org/2000/svg" viewBox="0 0 286.1 286.1"><defs/><path fill="#3db39e" d="M78.5 143.2H62.8v-.1A79.5 79.5 0 01142 62.9c21.7.1 41.6 8.9 55.7 23.2l25.9-25c-20.9-21-49.7-34-81.6-34C78.4 27 26.8 79 26.7 143H11c-9.7 0-13.7 6.6-8.8 14.5l33.8 33.5c6.7 6.7 10.7 7 17.6 0l33.8-33.5c4.9-8 .9-14.4-8.8-14.4zm205.5-14l-33.8-33.4c-7-6.9-11.2-6.5-17.7 0l-33.8 33.4c-4.8 8-.9 14.5 8.9 14.5h15.6A78.9 78.9 0 0188.3 200L62.5 225c20.8 21 49.7 34 81.5 34 63.4 0 114.9-51.6 115.3-115.3h15.9c9.7 0 13.6-6.5 8.8-14.5z"/></svg>