<svg xmlns="http://www.w3.org/2000/svg" viewBox="0 0 512 512"><defs/><linearGradient id="a" x1="265.8" x2="265.8" y1="270" y2="0" gradientUnits="userSpaceOnUse"><stop offset="0" stop-color="#fd5900"/><stop offset="1" stop-color="#ffde00"/></linearGradient><linearGradient id="b" x1="246.2" x2="246.2" y1="512" y2="242" gradientUnits="userSpaceOnUse"><stop offset="0" stop-color="#ffe59a"/><stop offset="1" stop-color="#ffffd5"/></linearGradient><path fill="url(#a)" d="M439.3 76.6A262.5 262.5 0 00256.1 0 254.4 254.4 0 0091 61.5L68.6 24.2A15 15 0 0041 29.8L19.7 178.3a15 15 0 0017 17L185.2 174a15 15 0 005.6-27.7L155.4 125c48.3-37.9 99.1-34.6 102.1-35.1 56 0 93.3 25.4 114.7 46.8 31.3 31.3 50 75.5 49.8 118.2a15 15 0 0015 15h60a15 15 0 0015-15c.3-68.9-24.9-130.6-72.7-178.4z"/><path fill="url(#b)" d="M475.3 316.9L327 338a15 15 0 00-5.6 27.7l35.2 21.2A166.4 166.4 0 01255 422a156 156 0 01-115.2-46.8A170.5 170.5 0 0190 257a15 15 0 00-15-15H15a15 15 0 00-15 15c-.3 68.9 24.9 130.6 72.7 178.4A262.6 262.6 0 00255.9 512c60.4 0 119.4-22.2 165-61.5l22.5 37.4a15 15 0 0027.7-5.6l21.2-148.5a15 15 0 00-17-17z"/></svg>